<?xml version="1.0" encoding="utf-8"?>
<!-- Generator: Adobe Illustrator 22.0.1, SVG Export Plug-In . SVG Version: 6.00 Build 0)  -->
<svg version="1.1" id="layer_1" xmlns="http://www.w3.org/2000/svg" xmlns:xlink="http://www.w3.org/1999/xlink" x="0px" y="0px"
	 viewBox="0 0 400 110" style="enable-background:new 0 0 400 110;" xml:space="preserve">
<style type="text/css">
	.st0{fill:#FFFFFF;}
</style>
<g>
	<polygon class="st0" points="106.253,14.611 106.253,73.485 82.847,73.485 82.847,52.385 42.676,52.385 42.676,73.485 
		19.642,73.485 19.642,14.611 42.676,14.611 42.676,38.656 82.847,38.656 82.847,14.611 	"/>
	<path class="st0" d="M180.389,29.262h-64.495l0.094-14.652h71.221c4.236,0,7.877,1.508,10.916,4.514
		c3.041,3.015,4.564,6.665,4.564,10.962v27.918c0,4.301-1.523,7.955-4.564,10.966c-3.039,3.011-6.679,4.513-10.916,4.513h-71.221
		l-0.094-34.829h22.297l0.093,20.178h42.105V29.262z"/>
	<path class="st0" d="M316.754,19.129c3.006,3.011,4.512,6.67,4.512,10.969v43.418h-22.294V29.293h-21.234v44.223h-22.195V29.293
		h-21.234v44.223h-22.315V14.611h93.889C310.117,14.611,313.739,16.118,316.754,19.129z"/>
	<polygon class="st0" points="353.725,52.385 353.725,73.485 330.692,73.485 330.692,14.611 353.725,14.611 353.725,38.656 
		353.635,46.583 	"/>
	<polygon class="st0" points="21.106,88.07 22.917,88.07 22.917,92.187 27.629,92.187 27.629,88.07 29.441,88.07 29.441,98.42 
		27.629,98.42 27.629,93.752 22.917,93.752 22.917,98.42 21.106,98.42 	"/>
	<rect x="32.628" y="88.07" class="st0" width="1.813" height="10.349"/>
	<path class="st0" d="M46.704,98.42h-1.16l-0.275-1.219c-0.97,1.103-1.855,1.466-3.116,1.466c-3.102,0-4.957-2.466-4.957-5.421
		c0-2.959,1.856-5.424,4.957-5.424c2.262,0,4.161,1.203,4.436,3.538h-1.77c-0.173-1.363-1.362-2.059-2.666-2.059
		c-2.219,0-3.146,1.958-3.146,3.945c0,1.985,0.927,3.941,3.146,3.941c1.855,0.028,2.87-1.088,2.898-2.841h-2.754v-1.378h4.407V98.42
		z"/>
	<polygon class="st0" points="49.647,88.07 51.46,88.07 51.46,92.187 56.17,92.187 56.17,88.07 57.981,88.07 57.981,98.42 
		56.17,98.42 56.17,93.752 51.46,93.752 51.46,98.42 49.647,98.42 	"/>
	<path class="st0" d="M66.215,88.07h4.291c3.189,0,4.566,2.318,4.566,5.176c0,2.853-1.378,5.174-4.566,5.174h-4.291V88.07
		 M68.027,96.94h1.782c2.841,0,3.45-1.622,3.45-3.694c0-2.074-0.609-3.699-3.45-3.699h-1.782V96.94z"/>
	<polygon class="st0" points="77.696,88.07 85.145,88.07 85.145,89.636 79.507,89.636 79.507,92.346 84.726,92.346 84.726,93.825 
		79.507,93.825 79.507,96.854 85.247,96.854 85.247,98.42 77.696,98.42 	"/>
	<polygon class="st0" points="87.842,88.07 94.989,88.07 94.989,89.636 89.655,89.636 89.655,92.346 94.336,92.346 94.336,93.825 
		89.655,93.825 89.655,98.42 87.842,98.42 	"/>
	<rect x="97.453" y="88.07" class="st0" width="1.812" height="10.349"/>
	<polygon class="st0" points="102.424,88.07 104.337,88.07 109.064,95.693 109.093,95.693 109.093,88.07 110.818,88.07 
		110.818,98.42 108.904,98.42 104.194,90.808 104.149,90.808 104.149,98.42 102.424,98.42 	"/>
	<rect x="113.977" y="88.07" class="st0" width="1.812" height="10.349"/>
	<polygon class="st0" points="118.037,88.07 126.414,88.07 126.414,89.636 123.124,89.636 123.124,98.42 121.313,98.42 
		121.313,89.636 118.037,89.636 	"/>
	<rect x="128.633" y="88.07" class="st0" width="1.812" height="10.349"/>
	<path class="st0" d="M143.041,93.246c0,2.955-1.856,5.421-4.957,5.421c-3.103,0-4.958-2.466-4.958-5.421
		c0-2.959,1.855-5.424,4.958-5.424C141.186,87.822,143.041,90.287,143.041,93.246 M134.939,93.246c0,1.985,0.927,3.941,3.145,3.941
		c2.218,0,3.145-1.957,3.145-3.941c0-1.987-0.927-3.945-3.145-3.945C135.866,89.301,134.939,91.259,134.939,93.246z"/>
	<polygon class="st0" points="145.636,88.07 147.549,88.07 152.275,95.693 152.304,95.693 152.304,88.07 154.029,88.07 
		154.029,98.42 152.115,98.42 147.405,90.808 147.361,90.808 147.361,98.42 145.636,98.42 	"/>
	<polygon class="st0" points="162.204,88.07 164.755,88.07 167.611,96.173 167.64,96.173 170.424,88.07 172.946,88.07 
		172.946,98.42 171.22,98.42 171.22,90.433 171.192,90.433 168.321,98.42 166.829,98.42 163.958,90.433 163.929,90.433 
		163.929,98.42 162.204,98.42 	"/>
	<path class="st0" d="M176.019,88.07h1.811v6.031c0,1.39,0.088,2.999,2.436,2.999c2.347,0,2.435-1.609,2.435-2.999V88.07h1.812
		v6.625c0,2.651-1.696,3.972-4.247,3.972c-2.552,0-4.248-1.321-4.248-3.972V88.07z"/>
	<polygon class="st0" points="187.615,88.07 189.426,88.07 189.426,96.854 194.691,96.854 194.691,98.42 187.615,98.42 	"/>
	<polygon class="st0" points="194.633,88.07 203.011,88.07 203.011,89.636 199.72,89.636 199.72,98.42 197.909,98.42 
		197.909,89.636 194.633,89.636 	"/>
	<rect x="205.229" y="88.07" class="st0" width="1.812" height="10.349"/>
	<polygon class="st0" points="210.247,88.07 212.797,88.07 215.653,96.173 215.68,96.173 218.463,88.07 220.987,88.07 
		220.987,98.42 219.263,98.42 219.263,90.433 219.233,90.433 216.361,98.42 214.869,98.42 212,90.433 211.969,90.433 211.969,98.42 
		210.247,98.42 	"/>
	<polygon class="st0" points="224.176,88.07 231.626,88.07 231.626,89.636 225.987,89.636 225.987,92.346 231.207,92.346 
		231.207,93.825 225.987,93.825 225.987,96.854 231.728,96.854 231.728,98.42 224.176,98.42 	"/>
	<path class="st0" d="M234.321,88.07h4.291c3.19,0,4.566,2.318,4.566,5.176c0,2.853-1.376,5.174-4.566,5.174h-4.291V88.07
		 M236.136,96.94h1.782c2.841,0,3.448-1.622,3.448-3.694c0-2.074-0.607-3.699-3.448-3.699h-1.782V96.94z"/>
	<rect x="245.802" y="88.07" class="st0" width="1.812" height="10.349"/>
	<path class="st0" d="M253.616,88.07h1.928l3.987,10.349h-1.945l-0.969-2.741h-4.133l-0.97,2.741h-1.871L253.616,88.07
		 M252.977,94.303h3.161l-1.55-4.449h-0.044L252.977,94.303z"/>
	<rect x="266.577" y="88.07" class="st0" width="1.811" height="10.349"/>
	<polygon class="st0" points="271.544,88.07 273.46,88.07 278.186,95.693 278.216,95.693 278.216,88.07 279.94,88.07 279.94,98.42 
		278.026,98.42 273.315,90.808 273.272,90.808 273.272,98.42 271.544,98.42 	"/>
	<polygon class="st0" points="282.116,88.07 290.492,88.07 290.492,89.636 287.203,89.636 287.203,98.42 285.389,98.42 
		285.389,89.636 282.116,89.636 	"/>
	<polygon class="st0" points="292.71,88.07 300.159,88.07 300.159,89.636 294.523,89.636 294.523,92.346 299.74,92.346 
		299.74,93.825 294.523,93.825 294.523,96.854 300.261,96.854 300.261,98.42 292.71,98.42 	"/>
	<path class="st0" d="M302.856,88.07h4.943c2.262,0,3.419,1.042,3.419,2.796c0,1.986-1.374,2.493-1.708,2.61v0.029
		c0.623,0.087,1.537,0.551,1.537,2.188c0,1.204,0.171,2.307,0.566,2.726h-1.943c-0.276-0.448-0.276-1.015-0.276-1.522
		c0-1.9-0.391-2.741-2.057-2.741h-2.668v4.262h-1.812V88.07 M304.669,92.781h2.972c1.145,0,1.77-0.564,1.77-1.653
		c0-1.319-0.857-1.581-1.799-1.581h-2.943V92.781z"/>
	<polygon class="st0" points="314.078,88.07 321.223,88.07 321.223,89.636 315.888,89.636 315.888,92.346 320.571,92.346 
		320.571,93.825 315.888,93.825 315.888,98.42 314.078,98.42 	"/>
	<path class="st0" d="M325.662,88.07h1.925l3.987,10.349h-1.941l-0.973-2.741h-4.13l-0.974,2.741h-1.868L325.662,88.07
		 M325.021,94.303h3.161l-1.55-4.449h-0.045L325.021,94.303z"/>
	<path class="st0" d="M340.562,91.36c-0.305-1.189-1.072-2.059-2.582-2.059c-2.218,0-3.144,1.958-3.144,3.945
		c0,1.985,0.926,3.941,3.144,3.941c1.611,0,2.495-1.203,2.638-2.71h1.771c-0.147,2.479-1.901,4.19-4.409,4.19
		c-3.101,0-4.955-2.466-4.955-5.421c0-2.959,1.855-5.424,4.955-5.424c2.336,0.016,4.175,1.305,4.392,3.538H340.562z"/>
	<polygon class="st0" points="345.053,88.07 352.504,88.07 352.504,89.636 346.867,89.636 346.867,92.346 352.085,92.346 
		352.085,93.825 346.867,93.825 346.867,96.854 352.606,96.854 352.606,98.42 345.053,98.42 	"/>
	<path class="st0" d="M365.416,16.257h-2.6v-1.423h6.745v1.423h-2.6v7.031h-1.545V16.257 M371.553,14.834h2.398l2.216,5.711
		l2.176-5.711h2.396v8.454h-1.545v-6.461h-0.041l-2.376,6.461h-1.259l-2.38-6.461h-0.041v6.461h-1.545V14.834z"/>
	<rect x="60.216" y="93.04" class="st0" width="3.678" height="0.952"/>
</g>
</svg>
